<svg width="18" height="18" viewBox="0 0 18 18" fill="none" xmlns="http://www.w3.org/2000/svg"><path fill-rule="evenodd" clip-rule="evenodd" d="M1.688 13.615c0-.311.251-.563.562-.563h13.5a.563.563 0 0 1 0 1.125H2.25a.562.562 0 0 1-.563-.562ZM1.688 15.75c0-.31.251-.563.562-.563h13.5a.562.562 0 1 1 0 1.126H2.25a.562.562 0 0 1-.563-.563ZM6.352 8.227c.22-.22.576-.22.796 0L9 10.08l1.852-1.852a.562.562 0 1 1 .796.796l-2.25 2.25a.562.562 0 0 1-.796 0l-2.25-2.25a.563.563 0 0 1 0-.796Z" fill="#2E2E2D"/><path fill-rule="evenodd" clip-rule="evenodd" d="M9 1.688c.31 0 .563.251.563.562v8.625a.562.562 0 1 1-1.126 0V2.25c0-.31.252-.563.563-.563Z" fill="#2E2E2D"/></svg>