<svg width="20" height="20" viewBox="0 0 20 20" fill="none" xmlns="http://www.w3.org/2000/svg"><path fill-rule="evenodd" clip-rule="evenodd" d="M14.375 3.542a2.083 2.083 0 1 0 0 4.166 2.083 2.083 0 0 0 0-4.166Zm-3.333 2.083a3.333 3.333 0 1 1 6.667 0 3.333 3.333 0 0 1-6.667 0ZM14.375 12.292a2.083 2.083 0 1 0 0 4.166 2.083 2.083 0 0 0 0-4.166Zm-3.333 2.083a3.333 3.333 0 1 1 6.667 0 3.333 3.333 0 0 1-6.667 0ZM5.625 3.542a2.083 2.083 0 1 0 0 4.166 2.083 2.083 0 0 0 0-4.166ZM2.292 5.625a3.333 3.333 0 1 1 6.667 0 3.333 3.333 0 0 1-6.667 0ZM5.625 12.292a2.083 2.083 0 1 0 0 4.166 2.083 2.083 0 0 0 0-4.166Zm-3.333 2.083a3.333 3.333 0 1 1 6.667 0 3.333 3.333 0 0 1-6.667 0Z" fill="#fff"/></svg>