<svg width="20" height="20" viewBox="0 0 20 20" fill="none" xmlns="http://www.w3.org/2000/svg"><path fill-rule="evenodd" clip-rule="evenodd" d="M6.916 4.026a.193.193 0 0 0-.192.193V5.76a.578.578 0 1 1-1.157 0V4.22c0-.745.604-1.35 1.35-1.35h10.02c.745 0 1.35.605 1.35 1.35v6.937c0 .745-.605 1.35-1.35 1.35h-.77a.578.578 0 0 1 0-1.157h.77a.193.193 0 0 0 .193-.193V4.22a.193.193 0 0 0-.193-.193H6.917Z" fill="#fff"/><path fill-rule="evenodd" clip-rule="evenodd" d="M3.063 8.651a.193.193 0 0 0-.193.193v6.937c0 .107.086.193.193.193h10.02a.193.193 0 0 0 .193-.193V8.844a.193.193 0 0 0-.192-.193H3.063Zm-1.35.193c0-.745.605-1.35 1.35-1.35h10.02c.746 0 1.35.605 1.35 1.35v6.937c0 .745-.604 1.35-1.35 1.35H3.064a1.349 1.349 0 0 1-1.35-1.35V8.844Z" fill="#fff"/><path fill-rule="evenodd" clip-rule="evenodd" d="M1.714 11.542c0-.32.259-.579.578-.579h11.563a.578.578 0 0 1 0 1.157H2.291a.578.578 0 0 1-.578-.578Z" fill="#fff"/><path fill-rule="evenodd" clip-rule="evenodd" d="M13.854 9.036c.32 0 .579.26.579.579v4.625a.578.578 0 1 1-1.157 0V9.615c0-.32.26-.579.579-.579ZM2.292 9.036c.32 0 .578.26.578.579v4.625a.578.578 0 0 1-1.156 0V9.615c0-.32.259-.579.578-.579ZM4.411 13.854c0-.32.259-.578.578-.578h3.084a.578.578 0 0 1 0 1.156H4.989a.578.578 0 0 1-.578-.578ZM9.808 13.854c0-.32.258-.578.578-.578h.77a.578.578 0 0 1 0 1.156h-.77a.578.578 0 0 1-.578-.578Z" fill="#fff"/></svg>