<svg width="20" height="20" viewBox="0 0 20 20" fill="none" xmlns="http://www.w3.org/2000/svg"><path fill-rule="evenodd" clip-rule="evenodd" d="M1.602 2.188c0-.324.262-.586.585-.586h3.126c.323 0 .585.262.585.585V7.49l5.402-2.7a.586.586 0 0 1 .848.524v2.176l5.402-2.7a.586.586 0 0 1 .848.524v12.5a.586.586 0 0 1-.585.585H2.188a.586.586 0 0 1-.586-.585V2.188Zm1.171.585v14.454h14.454V6.26l-5.402 2.7a.586.586 0 0 1-.848-.524V6.261l-5.402 2.7a.586.586 0 0 1-.848-.524V2.774H2.773Z" fill="#fff"/><path fill-rule="evenodd" clip-rule="evenodd" d="M4.727 11.563c0-.324.262-.586.585-.586h3.125c.324 0 .586.262.586.585v3.126a.586.586 0 0 1-.585.585H5.312a.586.586 0 0 1-.585-.585v-3.126Zm1.171.585v1.954h1.954v-1.954H5.898ZM10.977 11.563c0-.324.262-.586.585-.586h3.126c.323 0 .585.262.585.585v3.126a.586.586 0 0 1-.585.585h-3.126a.586.586 0 0 1-.585-.585v-3.126Zm1.171.585v1.954h1.954v-1.954h-1.954Z" fill="#fff"/></svg>