<svg width="20" height="20" viewBox="0 0 20 20" fill="none" xmlns="http://www.w3.org/2000/svg"><path d="M16.25 13.333v.521h.407l.098-.394-.505-.127Zm-10.833 0-.506.127.099.394h.407v-.52ZM18.333 5l.506.126L19 4.48h-.667V5ZM1.25 2.5v-.52a.52.52 0 0 0-.4.853l.4-.333Zm1.458 0 .505-.126a.52.52 0 0 0-.505-.395V2.5ZM16.25 12.813H5.417v1.041H16.25v-1.041Zm-10.328.394L3.838 4.874l-1.01.252L4.91 13.46l1.01-.253ZM3.333 5.521h15V4.479h-15v1.042Zm14.495-.647-2.083 8.333 1.01.253 2.084-8.334-1.011-.252ZM1.25 3.02h1.458V1.979H1.25v1.042Zm.953-.395.625 2.5 1.01-.252-.625-2.5-1.01.252Zm1.53 2.04-2.083-2.5-.8.667 2.083 2.5.8-.666ZM6.146 16.25a.73.73 0 0 1-.73.73v1.04a1.77 1.77 0 0 0 1.771-1.77H6.146Zm-.73.73a.73.73 0 0 1-.729-.73H3.646c0 .978.793 1.77 1.77 1.77v-1.04Zm-.729-.73a.73.73 0 0 1 .73-.73v-1.04a1.77 1.77 0 0 0-1.771 1.77h1.041Zm.73-.73a.73.73 0 0 1 .729.73h1.041a1.77 1.77 0 0 0-1.77-1.77v1.04Zm11.562.73a.73.73 0 0 1-.73.73v1.04a1.77 1.77 0 0 0 1.772-1.77h-1.042Zm-.73.73a.73.73 0 0 1-.728-.73h-1.042c0 .978.793 1.77 1.77 1.77v-1.04Zm-.728-.73a.73.73 0 0 1 .729-.73v-1.04a1.77 1.77 0 0 0-1.771 1.77h1.042Zm.729-.73a.73.73 0 0 1 .729.73h1.042a1.77 1.77 0 0 0-1.771-1.77v1.04Z" fill="#fff"/></svg>