<svg width="20" height="20" viewBox="0 0 20 20" fill="none" xmlns="http://www.w3.org/2000/svg"><path fill-rule="evenodd" clip-rule="evenodd" d="M1.042 2.5c0-.345.28-.625.625-.625h16.667c.345 0 .625.28.625.625V15c0 .345-.28.625-.625.625H9.73l-4.034 2.017a.625.625 0 0 1-.905-.559v-1.458H1.667A.625.625 0 0 1 1.042 15V2.5Zm1.25.625v11.25h3.125c.345 0 .625.28.625.625v1.072l3.262-1.631a.625.625 0 0 1 .28-.066h8.125V3.125H2.292Z" fill="#585857"/><path fill-rule="evenodd" clip-rule="evenodd" d="M5.833 7.5c.345 0 .625.28.625.625v1.25a.625.625 0 1 1-1.25 0v-1.25c0-.345.28-.625.625-.625ZM10 7.5c.345 0 .625.28.625.625v1.25a.625.625 0 1 1-1.25 0v-1.25c0-.345.28-.625.625-.625ZM14.167 7.5c.345 0 .625.28.625.625v1.25a.625.625 0 1 1-1.25 0v-1.25c0-.345.28-.625.625-.625Z" fill="#585857"/></svg>