<svg width="20" height="20" viewBox="0 0 20 20" fill="none" xmlns="http://www.w3.org/2000/svg"><path fill-rule="evenodd" clip-rule="evenodd" d="M5.183 2.292c0-.32.258-.578.578-.578h6.552c.32 0 .578.258.578.578v4.047h3.661c.32 0 .579.258.579.578v8.479c0 .32-.26.578-.579.578H5.761a.578.578 0 0 1-.578-.578V2.292Zm1.156.578v11.948h9.635V7.495h-3.661a.578.578 0 0 1-.578-.578V2.87H6.339Z" fill="#fff"/><path fill-rule="evenodd" clip-rule="evenodd" d="M11.922 1.865a.578.578 0 0 1 .817.036l4.24 4.625a.578.578 0 0 1-.853.781l-4.24-4.625a.578.578 0 0 1 .036-.817ZM3.448 7.88c.32 0 .578.259.578.578v8.672h7.516a.578.578 0 0 1 0 1.157H3.448a.578.578 0 0 1-.578-.579v-9.25c0-.319.259-.578.578-.578ZM7.495 8.458c0-.319.259-.578.578-.578h1.542a.578.578 0 0 1 0 1.156H8.073a.578.578 0 0 1-.578-.578ZM7.495 11.542c0-.32.259-.579.578-.579h4.625a.578.578 0 0 1 0 1.157H8.073a.578.578 0 0 1-.578-.578Z" fill="#fff"/></svg>