<svg width="16" height="16" viewBox="0 0 16 16" fill="none" xmlns="http://www.w3.org/2000/svg"><g clip-path="url(#a)" fill-rule="evenodd" clip-rule="evenodd" fill="#828281"><path d="M2.5 3.333a.5.5 0 0 1 .5-.5h10a.5.5 0 0 1 .5.5v11.334a.5.5 0 0 1-.5.5H3a.5.5 0 0 1-.5-.5V3.333Zm1 .5v10.334h9V3.833h-9Z"/><path d="M6.668 6.167a.5.5 0 0 1 .5.5V11a.5.5 0 0 1-1 0V6.667a.5.5 0 0 1 .5-.5ZM9.332 6.167a.5.5 0 0 1 .5.5V11a.5.5 0 0 1-1 0V6.667a.5.5 0 0 1 .5-.5ZM.832 3.333a.5.5 0 0 1 .5-.5h13.333a.5.5 0 0 1 0 1H1.332a.5.5 0 0 1-.5-.5Z"/><path d="M5.99 1.093a.5.5 0 0 1 .438-.26h3.163a.5.5 0 0 1 .44.264l1.075 2a.5.5 0 0 1-.44.736H5.331a.5.5 0 0 1-.438-.74l1.096-2Zm.734.74-.548 1H9.83l-.537-1H6.724Z"/></g><defs><clipPath id="a"><path fill="#fff" d="M0 0h16v16H0z"/></clipPath></defs></svg>