<svg width="18" height="18" viewBox="0 0 18 18" fill="none" xmlns="http://www.w3.org/2000/svg"><path fill-rule="evenodd" clip-rule="evenodd" d="M2.438 2.25c0-.725.587-1.313 1.312-1.313h7.875c.16 0 .311.068.418.187l3.375 3.75a.562.562 0 0 1 .145.376v10.5c0 .725-.588 1.313-1.313 1.313H3.75a1.312 1.312 0 0 1-1.313-1.313V2.25Zm1.312-.188a.188.188 0 0 0-.188.188v13.5c0 .104.084.188.188.188h10.5a.187.187 0 0 0 .188-.188V5.466l-3.064-3.404H3.75Z" fill="#2E2E2D"/><path fill-rule="evenodd" clip-rule="evenodd" d="M9 7.688c.31 0 .563.251.563.562v5.25a.562.562 0 1 1-1.126 0V8.25c0-.31.252-.563.563-.563Z" fill="#2E2E2D"/><path fill-rule="evenodd" clip-rule="evenodd" d="M6.188 8.25c0-.31.251-.563.562-.563h4.5a.562.562 0 1 1 0 1.125h-4.5a.563.563 0 0 1-.563-.562ZM11.25.938c.31 0 .563.251.563.562v3.188H15a.562.562 0 1 1 0 1.125h-3.75a.562.562 0 0 1-.563-.563V1.5c0-.31.252-.563.563-.563Z" fill="#2E2E2D"/></svg>