<svg width="20" height="20" viewBox="0 0 20 20" fill="none" xmlns="http://www.w3.org/2000/svg"><path fill-rule="evenodd" clip-rule="evenodd" d="M16.938 9.422c.319 0 .578.259.578.578v6.938c0 .319-.26.578-.578.578H3.063a.578.578 0 0 1-.579-.578v-6.935a.578.578 0 1 1 1.157 0v6.356h12.718V10c0-.32.26-.578.578-.578Z" fill="#fff"/><path fill-rule="evenodd" clip-rule="evenodd" d="M6.122 9.206a.578.578 0 0 1 .818 0l3.06 3.06 3.06-3.06a.578.578 0 1 1 .817.817l-3.468 3.47a.578.578 0 0 1-.818 0l-3.469-3.47a.578.578 0 0 1 0-.817Z" fill="#fff"/><path fill-rule="evenodd" clip-rule="evenodd" d="M9.997 2.484c.32 0 .578.26.578.579v10.02a.578.578 0 1 1-1.156 0V3.063c0-.32.259-.579.578-.579Z" fill="#fff"/></svg>