<svg width="18" height="18" viewBox="0 0 18 18" fill="none" xmlns="http://www.w3.org/2000/svg"><path fill-rule="evenodd" clip-rule="evenodd" d="M1.313 3c0-.932.755-1.688 1.687-1.688h9.75c.932 0 1.688.756 1.688 1.688v9.75c0 .932-.756 1.688-1.688 1.688H3a1.687 1.687 0 0 1-1.688-1.688V3ZM3 2.437A.563.563 0 0 0 2.437 3v9.75c0 .31.252.563.563.563h9.75c.31 0 .563-.252.563-.563V3a.562.562 0 0 0-.563-.563H3Z" fill="#2E2E2D"/><path fill-rule="evenodd" clip-rule="evenodd" d="M16.5 4.313c.311 0 .563.252.563.563V15.75c0 .725-.587 1.313-1.312 1.313H4.877a.562.562 0 1 1 0-1.125H15.75a.187.187 0 0 0 .187-.188V4.876c0-.31.252-.563.563-.563ZM11.267 5.491a.562.562 0 0 1 .011.796l-3.75 3.859a.562.562 0 0 1-.784.022l-2.25-2.072a.563.563 0 0 1 .762-.828L7.103 8.97l3.369-3.466a.562.562 0 0 1 .795-.012Z" fill="#2E2E2D"/></svg>