<svg width="20" height="20" viewBox="0 0 20 20" fill="none" xmlns="http://www.w3.org/2000/svg"><path fill-rule="evenodd" clip-rule="evenodd" d="M3.666 3.666A8.932 8.932 0 0 1 10 1.042a8.932 8.932 0 0 1 6.335 2.624l-.442.441.442-.441A8.932 8.932 0 0 1 18.959 10a8.932 8.932 0 0 1-2.624 6.334A8.932 8.932 0 0 1 10 18.958a8.932 8.932 0 0 1-6.334-2.623l.442-.442-.442.441A8.932 8.932 0 0 1 1.042 10a8.932 8.932 0 0 1 2.624-6.334ZM10 2.292a7.682 7.682 0 0 0-5.45 2.257A7.682 7.682 0 0 0 2.292 10c0 2.129.862 4.055 2.258 5.45A7.682 7.682 0 0 0 10 17.709a7.682 7.682 0 0 0 5.45-2.257A7.682 7.682 0 0 0 17.71 10a7.682 7.682 0 0 0-2.258-5.45A7.682 7.682 0 0 0 10 2.291Z" fill="#585857"/><path fill-rule="evenodd" clip-rule="evenodd" d="M10 4.583a1.042 1.042 0 1 1 0 2.084 1.042 1.042 0 0 1 0-2.084ZM8.75 8.333c0-.345.28-.625.625-.625h.833c.345 0 .625.28.625.625v5.834a.625.625 0 1 1-1.25 0V8.958h-.208a.625.625 0 0 1-.625-.625Z" fill="#585857"/><path fill-rule="evenodd" clip-rule="evenodd" d="M8.125 14.167c0-.345.28-.625.625-.625h2.917a.625.625 0 0 1 0 1.25H8.75a.625.625 0 0 1-.625-.625Z" fill="#585857"/></svg>