<svg width="20" height="20" viewBox="0 0 20 20" fill="none" xmlns="http://www.w3.org/2000/svg"><path fill-rule="evenodd" clip-rule="evenodd" d="M2.917 3.125a.625.625 0 0 0-.625.625v12.5c0 .345.28.625.625.625h14.167c.345 0 .625-.28.625-.625V3.75a.625.625 0 0 0-.625-.625H2.917Zm-1.875.625c0-1.036.84-1.875 1.875-1.875h14.167c1.035 0 1.875.84 1.875 1.875v12.5c0 1.035-.84 1.875-1.875 1.875H2.917a1.875 1.875 0 0 1-1.875-1.875V3.75Z" fill="#585857"/><path fill-rule="evenodd" clip-rule="evenodd" d="M1.042 5.833c0-.345.28-.625.625-.625h16.667a.625.625 0 0 1 0 1.25H1.667a.625.625 0 0 1-.625-.625ZM7.708 10c0-.345.28-.625.625-.625H15a.625.625 0 1 1 0 1.25H8.333A.625.625 0 0 1 7.708 10ZM7.708 13.333c0-.345.28-.625.625-.625H15a.625.625 0 1 1 0 1.25H8.333a.625.625 0 0 1-.625-.625ZM4.375 10c0-.345.28-.625.625-.625h.833a.625.625 0 1 1 0 1.25H5A.625.625 0 0 1 4.375 10ZM4.375 13.333c0-.345.28-.625.625-.625h.833a.625.625 0 1 1 0 1.25H5a.625.625 0 0 1-.625-.625Z" fill="#585857"/></svg>