<svg width="20" height="20" viewBox="0 0 20 20" fill="none" xmlns="http://www.w3.org/2000/svg"><path fill-rule="evenodd" clip-rule="evenodd" d="M3.64 8.073a6.36 6.36 0 1 1 12.72 0c0 2.71-1.553 5.25-3.02 7.06a22.912 22.912 0 0 1-2.714 2.805 13.758 13.758 0 0 1-.244.205l-.015.012-.004.003-.001.001-.362-.45a72.54 72.54 0 0 1-.361.45h-.002l-.004-.004-.015-.012a12.797 12.797 0 0 1-.244-.205 22.91 22.91 0 0 1-2.714-2.804c-1.467-1.81-3.02-4.351-3.02-7.061ZM10 17.708l-.361.452a.578.578 0 0 0 .722 0L10 17.708Zm0-.758a21.764 21.764 0 0 0 2.442-2.544c1.422-1.756 2.761-4.033 2.761-6.333a5.203 5.203 0 1 0-10.406 0c0 2.3 1.338 4.577 2.761 6.332A21.744 21.744 0 0 0 10 16.95Z" fill="#fff"/><path fill-rule="evenodd" clip-rule="evenodd" d="M7.11 8.073a2.89 2.89 0 1 1 5.78 0 2.89 2.89 0 0 1-5.78 0ZM10 6.339a1.734 1.734 0 1 0 0 3.468 1.734 1.734 0 0 0 0-3.468Z" fill="#fff"/></svg>