<svg width="162" height="48" viewBox="0 0 162 48" fill="none" xmlns="http://www.w3.org/2000/svg"><g clip-path="url(#a)" fill="#00417F"><path d="M18.2 22.125a2.976 2.976 0 0 0-.476-.04c-.609 0-.897.239-1.332.596-.337.278-.72.591-1.278.84a1.558 1.558 0 0 1-.66.156c-.301 0-.586-.1-.827-.29-.21-.167-.384-.4-.514-.698-.258-.575-.384-1.424-.384-2.595v-6.8H6.092c-1.171 0-1.72.14-1.978.254-.036.016-.063.028-.083.04.17.377.392.65.633.94.55.675 1.123 1.373.87 2.984-.186 1.206-.898 2.17-2.001 2.71a4.394 4.394 0 0 1-1.91.432c-.238 0-.685-.02-1.187-.056 1.42 6.145 6.198 10.997 12.293 12.5v-4.042c0-1.17.126-2.02.384-2.594a1.83 1.83 0 0 1 .514-.695 1.29 1.29 0 0 1 .826-.29c.214 0 .436.052.657.152.562.253.941.567 1.277.845.436.357.72.595 1.334.595.142 0 .3-.012.474-.04.906-.139 1.365-.722 1.59-1.186a2.92 2.92 0 0 0 .277-1.266c0-.452-.095-.885-.277-1.265-.225-.465-.684-1.048-1.59-1.187h.004Z"/><path d="M0 16.797c0 .782.06 1.548.162 2.302.621.043 1.242.067 1.464.067.45 0 .886-.095 1.261-.282.463-.226 1.045-.686 1.187-1.595.146-.956-.115-1.277-.562-1.82-.273-.338-.585-.719-.834-1.278a1.62 1.62 0 0 1-.15-.655c0-.305.098-.583.292-.833.166-.21.4-.38.692-.515.574-.258 1.42-.385 2.587-.385h6.637V6.51c0-1.174-.138-1.725-.253-1.983a.746.746 0 0 0-.043-.084c-.384.175-.665.409-.938.631-.558.46-1.135.936-2.242.936a4.9 4.9 0 0 1-.732-.06c-1.171-.182-2.108-.864-2.65-1.92A16.76 16.76 0 0 0 0 16.798Z"/><path d="M32.739 11.803C30.619 4.963 24.262 0 16.747 0a16.638 16.638 0 0 0-9.675 3.09c.028.068.052.14.083.203.226.464.685 1.047 1.594 1.19.17.028.329.04.475.04.61 0 .898-.238 1.333-.595.316-.262.712-.592 1.277-.845.222-.1.444-.151.657-.151.3 0 .585.099.827.29.21.166.383.4.518.698.257.579.384 1.428.384 2.594v5.293h5.589c1.174 0 1.724-.135 1.981-.254.036-.016.064-.028.08-.044-.175-.38-.392-.655-.634-.94-.55-.675-1.123-1.373-.874-2.984.19-1.21.898-2.17 2.002-2.71a4.38 4.38 0 0 1 1.91-.432c.673 0 1.333.151 1.91.433 1.104.54 1.816 1.5 2.002 2.71.25 1.614-.32 2.312-.874 2.987-.23.277-.443.54-.629.94.02.012.047.024.08.04.256.115.806.25 1.977.25h3.999Z"/><path d="M25.212 25.752c0-4.908 3.599-8.958 8.262-9.605a17.349 17.349 0 0 0-.348-2.853h-4.374c-1.167 0-2.014-.127-2.587-.385a1.86 1.86 0 0 1-.696-.52 1.33 1.33 0 0 1-.289-.828c0-.215.051-.433.15-.659.254-.563.566-.948.843-1.281.435-.532.7-.857.554-1.813-.139-.909-.724-1.37-1.183-1.595a2.923 2.923 0 0 0-1.262-.278 2.91 2.91 0 0 0-1.262.278c-.462.226-1.04.686-1.182 1.595-.15.956.114 1.277.561 1.82.273.338.586.719.835 1.274.099.222.15.444.15.659 0 .301-.099.587-.288.825a1.789 1.789 0 0 1-.697.52c-.573.261-1.42.384-2.586.384h-5.59v6.8c0 1.175.135 1.73.25 1.98.016.04.031.067.043.087.38-.174.653-.396.938-.634.561-.46 1.139-.937 2.25-.937.23 0 .467.02.728.06 1.203.19 2.164.904 2.702 2.007.28.58.43 1.242.43 1.916a4.36 4.36 0 0 1-.43 1.916c-.538 1.107-1.495 1.822-2.702 2.012-.26.04-.506.06-.732.06-1.107 0-1.685-.477-2.246-.937-.277-.23-.542-.444-.942-.63l-.04.079c-.114.254-.248.805-.248 1.983v4.34c.822.127 1.669.191 2.527.191a16.63 16.63 0 0 0 9.69-3.102 9.78 9.78 0 0 1-1.221-4.741l-.008.012Z"/><path d="M41.986 17.817h-.629a.6.6 0 0 0-.593.595v2.008a7.753 7.753 0 0 0-6.052-2.889c-4.355 0-7.86 3.603-7.867 8.03.008 4.428 3.512 8.03 7.867 8.03h.004a7.76 7.76 0 0 0 6.048-2.857v1.98a.592.592 0 0 0 .593.595h.629a.595.595 0 0 0 .593-.595V18.408a.592.592 0 0 0-.593-.595v.004Zm-1.218 9.99a.584.584 0 0 0-.526.333l-.08.166c-.992 2.063-3.025 3.472-5.446 3.472-3.315 0-6.048-2.781-6.056-6.217.008-3.432 2.741-6.209 6.056-6.213 3.31 0 6.048 2.781 6.052 6.217v2.242Zm76.995-10.327a7.74 7.74 0 0 0-6.044 2.884v-2.008a.594.594 0 0 0-.589-.595h-.629a.601.601 0 0 0-.42.175.595.595 0 0 0-.17.42V37.82c0 .159.06.305.17.42a.594.594 0 0 0 .42.175h.629a.594.594 0 0 0 .589-.595v-7.133a7.73 7.73 0 0 0 6.04 2.852c4.351 0 7.855-3.602 7.863-8.03-.008-4.427-3.512-8.03-7.863-8.03h.004Zm0 14.242c-2.417 0-4.446-1.408-5.435-3.467l-.083-.17a.58.58 0 0 0-.356-.306.608.608 0 0 0-.17-.028v-2.245c.004-3.432 2.737-6.213 6.044-6.213 3.31 0 6.048 2.785 6.052 6.216-.004 3.432-2.742 6.213-6.052 6.213Zm-58.528.496L47.39 24.26l10.873-4.987a.6.6 0 0 0 .332-.663l-.07-.329a.592.592 0 0 0-.578-.468h-.408l-.245.056-11.296 5.18v-4.64a.596.596 0 0 0-.594-.596h-.629a.592.592 0 0 0-.59.595v14.306c.001.159.06.306.175.42a.59.59 0 0 0 .415.175h.63a.596.596 0 0 0 .593-.595v-7.296l11.589 7.788c.099.067.21.1.328.1h.993c.257 0 .49-.171.566-.421a.588.588 0 0 0-.238-.663v-.004Zm16.74-14.96a.59.59 0 0 0-.665.258l-6.345 10.263-6.344-10.264a.596.596 0 0 0-.665-.257.591.591 0 0 0-.427.57V32.71a.592.592 0 0 0 .593.595h.63a.596.596 0 0 0 .59-.595V22.122l5.125 8.291a.589.589 0 0 0 1.005 0l5.126-8.291V32.71a.592.592 0 0 0 .593.595h.63a.595.595 0 0 0 .59-.595V17.83a.598.598 0 0 0-.433-.571h-.004Zm16.6 11.612-.439-.195-.135-.06a.586.586 0 0 0-.735.223l-.08.123c-1.091 1.702-2.95 2.809-5.066 2.809-2.172 0-4.094-1.198-5.162-2.983h.008l11.577-6.733a.59.59 0 0 0 .198-.837l-.099-.155a7.718 7.718 0 0 0-6.514-3.535c-4.355 0-7.86 3.603-7.864 8.03.005 4.428 3.509 8.03 7.864 8.03 2.776 0 5.201-1.492 6.605-3.686l.111-.17a.59.59 0 0 0 .067-.488.607.607 0 0 0-.324-.373h-.012Zm-12.32-1.782a6.492 6.492 0 0 1-.19-1.53c.003-3.433 2.736-6.21 6.05-6.214 1.698 0 3.193.69 4.288 1.845L80.25 27.084l.004.005Zm27.75-9.275H93.516a.599.599 0 0 0-.593.595v.63a.592.592 0 0 0 .593.595h6.345v13.081a.592.592 0 0 0 .593.595h.629c.158 0 .305-.06.415-.174a.592.592 0 0 0 .174-.417v-13.08h6.333a.594.594 0 0 0 .593-.595v-.63a.592.592 0 0 0-.593-.595v-.005Zm26.782-.286c-4.355 0-7.86 3.603-7.864 8.03.008 4.428 3.513 8.026 7.864 8.03 4.351 0 7.855-3.602 7.863-8.03-.004-4.427-3.512-8.03-7.863-8.034v.004Zm0 14.247c-3.315 0-6.048-2.781-6.052-6.213.004-3.432 2.737-6.213 6.056-6.217 3.31 0 6.047 2.781 6.051 6.217-.004 3.428-2.741 6.209-6.051 6.213h-.004Zm24.305-13.786a.59.59 0 0 0-.419-.175h-.629a.599.599 0 0 0-.593.595v4.82h-11.312v-4.82a.62.62 0 0 0-.17-.42.6.6 0 0 0-.42-.175h-.629a.599.599 0 0 0-.593.595v14.306a.594.594 0 0 0 .593.595h.629a.598.598 0 0 0 .59-.595v-7.669h11.312v7.67c0 .154.063.308.174.42.111.107.261.17.419.17h.629a.598.598 0 0 0 .593-.595V18.404a.594.594 0 0 0-.174-.42v.004ZM100.463 46.094c-.537 0-1.008-.087-1.413-.26a2.859 2.859 0 0 1-1.008-.725 3.065 3.065 0 0 1-.608-1.058 3.933 3.933 0 0 1-.203-1.269c0-.62.127-1.181.379-1.682a2.912 2.912 0 0 1 1.097-1.189c.48-.294 1.056-.44 1.729-.44.513 0 .967.085 1.363.256.396.168.729.405.999.711.273.303.479.654.617 1.053.141.399.211.83.211 1.291 0 .63-.127 1.196-.382 1.697a2.898 2.898 0 0 1-1.089 1.184c-.471.288-1.035.431-1.692.431Zm-.023-.566c.441 0 .821-.075 1.139-.225.318-.15.579-.354.783-.612.207-.262.36-.556.459-.883.099-.327.148-.669.148-1.026 0-.383-.054-.742-.162-1.075a2.467 2.467 0 0 0-.477-.873 2.151 2.151 0 0 0-.787-.59 2.68 2.68 0 0 0-1.103-.211c-.432 0-.808.075-1.13.225-.317.147-.582.35-.791.607a2.66 2.66 0 0 0-.473.883 3.365 3.365 0 0 0-.158 1.035c0 .362.051.709.153 1.039.103.33.257.624.464.882.207.255.471.456.792.603.321.147.702.22 1.143.22Zm6.389.558c-.477 0-.882-.102-1.215-.306a1.999 1.999 0 0 1-.761-.833 2.618 2.618 0 0 1-.261-1.179c0-.441.084-.837.252-1.188.171-.351.417-.628.738-.832.321-.204.71-.306 1.166-.306a2.913 2.913 0 0 1 .985.17c.15.051.284.11.401.176l-.063.549a2.636 2.636 0 0 0-.896-.329 2.327 2.327 0 0 0-.364-.031c-.492 0-.887.16-1.184.482-.294.317-.441.75-.441 1.295 0 .343.065.65.194.923s.321.489.576.648c.258.159.579.238.963.238a2.275 2.275 0 0 0 .792-.144c.129-.05.253-.113.373-.188l.068.553c-.096.051-.212.1-.347.148-.132.045-.28.081-.445.108-.162.03-.339.046-.531.046Zm2.512-.086V41.541l.571-.023V46h-.571Zm.337-2.011v-.486h2.943v.486h-2.943ZM112.351 46V41.541h.576V46h-.576Zm4.04.094c-.357 0-.673-.063-.949-.188a2.072 2.072 0 0 1-.693-.523 2.31 2.31 0 0 1-.432-.751 2.772 2.772 0 0 1-.144-.891c0-.444.09-.838.27-1.184.183-.348.439-.62.769-.819.333-.197.723-.297 1.17-.297.345 0 .653.059.923.176a2.029 2.029 0 0 1 1.12 1.215 2.7 2.7 0 0 1 .149.909c0 .441-.089.84-.266 1.197-.177.354-.43.636-.76.846-.327.207-.713.31-1.157.31Zm-.004-.522c.357 0 .652-.087.886-.26.237-.177.414-.404.531-.68a2.28 2.28 0 0 0 .176-.891c0-.354-.065-.664-.194-.931a1.447 1.447 0 0 0-.553-.622 1.549 1.549 0 0 0-.846-.224c-.351 0-.648.079-.891.238-.24.156-.422.369-.545.639-.123.27-.184.57-.184.9 0 .315.06.612.18.891.12.276.3.503.54.68.24.174.54.26.9.26Zm3.43.428V41.541h1.976c.342 0 .616.045.823.135.207.087.357.21.45.368.093.157.14.341.14.554 0 .285-.074.514-.221.688a1.106 1.106 0 0 1-.54.36v.054c.141.024.281.074.419.149a.9.9 0 0 1 .342.338c.09.147.135.346.135.598 0 .225-.051.43-.153.617-.099.182-.279.328-.54.436-.258.108-.626.162-1.103.162h-1.728Zm.567-.481h1.125c.321 0 .572-.03.752-.09.18-.064.306-.154.378-.27a.776.776 0 0 0 .112-.428c0-.288-.097-.489-.292-.603-.195-.117-.48-.175-.855-.175h-1.373v-.446h1.296c.276 0 .492-.036.648-.108a.694.694 0 0 0 .338-.288.817.817 0 0 0 .099-.4c0-.258-.081-.437-.243-.536-.162-.102-.392-.153-.689-.153h-1.296V45.519Zm4.17.481V41.541l.572-.023V46h-.572Zm.338-2.011v-.486h2.943v.486h-2.943ZM127.565 46V41.541h.576V46h-.576Zm4.04.094c-.357 0-.674-.063-.95-.188a2.072 2.072 0 0 1-.693-.523 2.31 2.31 0 0 1-.432-.751 2.772 2.772 0 0 1-.144-.891c0-.444.09-.838.27-1.184.183-.348.44-.62.77-.819.333-.197.723-.297 1.17-.297.345 0 .652.059.922.176a2.029 2.029 0 0 1 1.121 1.215 2.7 2.7 0 0 1 .148.909c0 .441-.088.84-.265 1.197a2.094 2.094 0 0 1-.761.846c-.327.207-.712.31-1.156.31Zm-.005-.522c.357 0 .653-.087.887-.26.237-.177.414-.404.531-.68a2.28 2.28 0 0 0 .175-.891c0-.354-.064-.664-.193-.931a1.449 1.449 0 0 0-.554-.622 1.549 1.549 0 0 0-.846-.224c-.351 0-.648.079-.891.238a1.47 1.47 0 0 0-.544.639c-.123.27-.185.57-.185.9 0 .315.06.612.18.891.12.276.3.503.54.68.24.174.54.26.9.26Zm3.431.428V41.541l.563-.018V45.117h.054l1.057-1.566a10918.686 10918.686 0 0 1 1.355-2.011h.594V46h-.563v-3.577h-.058l-1.044 1.547a301.81 301.81 0 0 1-1.364 2.03h-.594Zm1.814-5.188c-.489 0-.855-.131-1.098-.392-.243-.264-.365-.605-.365-1.022l.504-.018c0 .34.08.593.239.761.162.168.402.252.72.252.213 0 .39-.036.531-.108a.707.707 0 0 0 .315-.333c.072-.15.108-.334.108-.553h.508c-.003.416-.123.757-.36 1.021-.237.261-.604.392-1.102.392Zm7.012 5.274c-.477 0-.882-.102-1.215-.306a1.997 1.997 0 0 1-.76-.833 2.618 2.618 0 0 1-.261-1.179c0-.441.084-.837.252-1.188.171-.351.417-.628.738-.832.321-.204.709-.306 1.165-.306a2.913 2.913 0 0 1 .986.17c.15.051.283.11.4.176l-.063.549a2.629 2.629 0 0 0-.895-.329 2.339 2.339 0 0 0-.365-.031c-.492 0-.886.16-1.183.482-.294.317-.441.75-.441 1.295 0 .343.064.65.193.923s.321.489.576.648c.258.159.579.238.963.238a2.275 2.275 0 0 0 .792-.144c.129-.05.254-.113.374-.188l.067.553c-.096.051-.211.1-.346.148a2.778 2.778 0 0 1-.446.108c-.162.03-.339.046-.531.046Zm3.614.004c-.273 0-.51-.051-.711-.153a1.145 1.145 0 0 1-.468-.441 1.334 1.334 0 0 1-.166-.68c0-.24.043-.44.13-.602.087-.163.201-.294.342-.396.144-.105.3-.186.468-.243.168-.06.335-.106.5-.136l1.458-.27c.012-.341-.032-.598-.131-.769a.704.704 0 0 0-.4-.346c-.171-.06-.36-.09-.567-.09a2.6 2.6 0 0 0-.329.022c-.117.012-.24.033-.369.063a4.96 4.96 0 0 0-.873.293l-.036-.55a4.438 4.438 0 0 1 .788-.242c.15-.033.303-.059.459-.077.159-.021.313-.032.463-.032.321 0 .597.053.828.158.234.102.413.266.536.49.126.226.189.515.189.869V46h-.531l-.023-.661h-.072a1.93 1.93 0 0 1-.873.643 1.705 1.705 0 0 1-.612.108Zm.144-.504c.171 0 .344-.033.518-.099.174-.069.336-.174.486-.315a1.77 1.77 0 0 0 .387-.535l.004-1.09a1.571 1.571 0 0 1-.202.086c-.084.027-.21.06-.378.099-.168.036-.404.083-.707.14-.189.032-.36.085-.513.157a.924.924 0 0 0-.36.297.772.772 0 0 0-.135.468c0 .288.086.492.257.612.174.12.388.18.643.18Zm3.412.414V41.541l.563-.018V45.117h.054l1.057-1.566a10918.686 10918.686 0 0 1 1.355-2.011h.594V46h-.563v-3.577h-.058l-1.044 1.547a301.81 301.81 0 0 1-1.364 2.03h-.594Zm1.814-5.188c-.489 0-.855-.131-1.098-.392-.243-.264-.365-.605-.365-1.022l.504-.018c0 .34.08.593.239.761.162.168.402.252.72.252.213 0 .39-.036.531-.108a.707.707 0 0 0 .315-.333c.072-.15.108-.334.108-.553h.508c-.003.416-.123.757-.36 1.021-.237.261-.604.392-1.102.392ZM157.222 46v-4.365l.202.396h-1.804v-.49h3.784v.49H157.6l.202-.396V46h-.58Z"/></g><defs><clipPath id="a"><path fill="#fff" d="M0 0h162v48H0z"/></clipPath></defs></svg>