<svg width="40" height="40" viewBox="0 0 40 40" fill="none" xmlns="http://www.w3.org/2000/svg"><path d="M16.848 26.39a.424.424 0 0 1-.28-.1c-.08-.068-.12-.168-.12-.3v-.88c0-.16.033-.288.1-.38.08-.094.2-.188.36-.28l5.34-3.66-5.34-3.66a1.774 1.774 0 0 1-.36-.3.642.642 0 0 1-.1-.38v-.88c0-.134.04-.234.12-.3.08-.068.173-.1.28-.1a.53.53 0 0 1 .26.08c.093.04.167.08.22.12l6.28 4.32c.213.146.36.286.44.42.093.132.14.3.14.5v.34a.912.912 0 0 1-.14.5c-.08.132-.227.272-.44.42l-6.28 4.32c-.053.04-.127.086-.22.14a.664.664 0 0 1-.26.06Z" fill="#585857"/></svg>