<svg width="20" height="20" viewBox="0 0 20 20" fill="none" xmlns="http://www.w3.org/2000/svg"><path fill-rule="evenodd" clip-rule="evenodd" d="M6.68 5.703a3.32 3.32 0 1 1 6.64 0 3.32 3.32 0 0 1-6.64 0ZM10 3.555a2.148 2.148 0 1 0 0 4.297 2.148 2.148 0 0 0 0-4.297ZM5.793 3.124c.185.265.12.63-.145.815a2.147 2.147 0 0 0 .12 3.606.586.586 0 0 1-.605 1.004 3.319 3.319 0 0 1-.186-5.57.586.586 0 0 1 .816.145ZM14.207 3.124a.586.586 0 0 1 .816-.146 3.317 3.317 0 0 1 1.422 2.725 3.317 3.317 0 0 1-1.422 2.725.586.586 0 0 1-.67-.961c.557-.39.92-1.034.92-1.764s-.363-1.374-.92-1.764a.586.586 0 0 1-.146-.815ZM9.979 10.977h.042c.71 0 1.273 0 1.729.03.465.032.862.099 1.233.252a3.71 3.71 0 0 1 2.008 2.008c.153.37.22.768.251 1.233.031.456.031 1.019.031 1.729v.802a.586.586 0 0 1-.585.586H5.312a.586.586 0 0 1-.585-.586v-.802c0-.71 0-1.273.03-1.729.032-.465.099-.862.252-1.233a3.71 3.71 0 0 1 2.008-2.008m2.962-.282c-.71 0-1.273 0-1.729.03Zm-1.729.03c-.465.032-.862.099-1.233.252Zm.08 1.17c-.406.027-.66.08-.864.165a2.54 2.54 0 0 0-1.374 1.374c-.085.204-.137.458-.165.864-.028.411-.029.934-.029 1.67v.195h8.204v-.195c0-.736 0-1.259-.029-1.67-.027-.406-.08-.66-.165-.864a2.54 2.54 0 0 0-1.374-1.374c-.204-.085-.458-.138-.864-.165-.411-.028-.934-.029-1.67-.029-.736 0-1.259 0-1.67.029ZM15.585 11.637a.586.586 0 0 1 .788-.256 3.71 3.71 0 0 1 1.621 1.622c.22.43.315.902.36 1.46.045.544.045 1.22.045 2.074v.494a.586.586 0 1 1-1.172 0v-.468c0-.885 0-1.514-.04-2.005-.04-.485-.116-.785-.237-1.023m-1.365-1.898a.586.586 0 0 0 .256.788Zm.256.788a2.537 2.537 0 0 1 1.11 1.11" fill="#fff"/><path d="m16.5 12.909-.915-1.272.256.788c.245.125.467.289.659.483Z" fill="#fff"/><path fill-rule="evenodd" clip-rule="evenodd" d="M4.416 11.637a.586.586 0 0 1-.256.788 2.539 2.539 0 0 0-1.11 1.11c-.121.238-.196.538-.236 1.023-.04.491-.04 1.12-.04 2.005v.468a.586.586 0 1 1-1.172 0v-.494c0-.853 0-1.53.044-2.075.046-.557.14-1.029.36-1.46a3.71 3.71 0 0 1 1.622-1.621.586.586 0 0 1 .788.256Z" fill="#fff"/></svg>