<svg width="20" height="20" viewBox="0 0 20 20" fill="none" xmlns="http://www.w3.org/2000/svg"><path fill-rule="evenodd" clip-rule="evenodd" d="M11.452 2.246a5.603 5.603 0 0 1 2.187.106 5.554 5.554 0 0 1 2.583 1.466l-.408.408.408-.408A5.553 5.553 0 0 1 17.687 6.4c.18.716.215 1.46.107 2.188a.577.577 0 1 1-1.141-.17 4.447 4.447 0 0 0-.085-1.737 4.399 4.399 0 0 0-1.162-2.047 4.4 4.4 0 0 0-2.047-1.162 4.45 4.45 0 0 0-1.737-.085.577.577 0 0 1-.17-1.141Z" fill="#585857"/><path fill-rule="evenodd" clip-rule="evenodd" d="M11.595 4.999c.871-.13 1.794.14 2.466.813.673.672.944 1.595.813 2.467a.577.577 0 1 1-1.14-.17 1.728 1.728 0 0 0-.489-1.481m0 0a1.727 1.727 0 0 0-1.48-.488.577.577 0 0 1-.17-1.141M4.732 4.536c-.633 0-1.028.567-.847 1.103.649 1.922 1.857 4.813 3.659 6.615 1.802 1.802 4.693 3.01 6.615 3.659.536.18 1.103-.214 1.103-.847v-1.951a.192.192 0 0 0-.099-.168l-1.7-.945a.192.192 0 0 0-.18-.004l-1.812.906a.577.577 0 0 1-.367.05l.11-.566-.11.566H11.1l-.006-.001-.018-.004a2.836 2.836 0 0 1-.251-.064 5.725 5.725 0 0 1-.65-.233 5.783 5.783 0 0 1-1.816-1.214A5.808 5.808 0 0 1 7.144 9.62a5.755 5.755 0 0 1-.286-.845 2.734 2.734 0 0 1-.013-.057L6.841 8.7v-.006l-.001-.002V8.69l.566-.11-.567.11a.577.577 0 0 1 .05-.369l.907-1.813a.192.192 0 0 0-.004-.179l-.94-1.695a.192.192 0 0 0-.169-.099h-1.95Zm3.286 4.11v.002c.036.124.096.305.187.518.183.429.487.973.97 1.456m0 0a4.632 4.632 0 0 0 1.454.969c.212.09.392.15.517.185l1.622-.81a1.346 1.346 0 0 1 1.256.027l-.26.47.26-.47 1.7.945c.427.237.692.688.692 1.177v1.95c0 1.355-1.279 2.396-2.626 1.941-1.946-.656-5.059-1.933-7.062-3.936s-3.28-5.116-3.936-7.062l.51-.171-.51.171c-.455-1.347.586-2.626 1.94-2.626h1.951c.49 0 .94.266 1.177.693l.941 1.695a1.346 1.346 0 0 1 .027 1.256l-.81 1.62" fill="#585857"/></svg>