<svg width="34" height="34" viewBox="0 0 34 34" fill="none" xmlns="http://www.w3.org/2000/svg"><rect width="34" height="34" rx="6.8" fill="#F7F9FB"/><path d="M16.711 21.745a.404.404 0 0 1-.272-.096.404.404 0 0 1-.096-.272v-3.328h-3.28a.404.404 0 0 1-.272-.096.404.404 0 0 1-.096-.272v-.512c0-.107.032-.192.096-.256a.37.37 0 0 1 .272-.112h3.28v-3.232c0-.107.032-.192.096-.256a.37.37 0 0 1 .272-.112h.56a.32.32 0 0 1 .256.112.32.32 0 0 1 .112.256V16.8h3.296a.32.32 0 0 1 .256.112.32.32 0 0 1 .112.256v.512a.37.37 0 0 1-.112.272.346.346 0 0 1-.256.096H17.64v3.328a.37.37 0 0 1-.112.272.346.346 0 0 1-.256.096h-.56Z" fill="#131313"/></svg>