<svg width="40" height="40" viewBox="0 0 40 40" fill="none" xmlns="http://www.w3.org/2000/svg"><path d="M23.158 26.41a.53.53 0 0 1-.26-.08 1.23 1.23 0 0 0-.22-.12l-6.3-4.34a1.641 1.641 0 0 1-.44-.4.912.912 0 0 1-.14-.5v-.36c0-.188.047-.348.14-.48a1.92 1.92 0 0 1 .44-.42l6.3-4.32c.067-.04.14-.088.22-.14a.53.53 0 0 1 .26-.08c.107 0 .2.04.28.12.08.066.12.166.12.3v.88c0 .146-.04.272-.12.38-.08.092-.193.186-.34.28l-5.36 3.66 5.36 3.66c.147.106.26.206.34.3.08.092.12.22.12.38v.88c0 .12-.04.22-.12.3a.424.424 0 0 1-.28.1Z" fill="#585857"/></svg>