<svg width="18" height="18" viewBox="0 0 18 18" fill="none" xmlns="http://www.w3.org/2000/svg"><path fill-rule="evenodd" clip-rule="evenodd" d="M1.102 12.727c.22-.22.576-.22.796 0L3.75 14.58l1.852-1.852a.562.562 0 1 1 .796.796l-2.25 2.25a.562.562 0 0 1-.796 0l-2.25-2.25a.562.562 0 0 1 0-.796ZM3.352 2.227c.22-.22.576-.22.796 0l2.25 2.25a.563.563 0 0 1-.796.796L3.75 3.42 1.898 5.272a.563.563 0 0 1-.796-.796l2.25-2.25Z" fill="#2E2E2D"/><path fill-rule="evenodd" clip-rule="evenodd" d="M3.75 2.063c.31 0 .563.251.563.562v12.75a.562.562 0 1 1-1.125 0V2.625c0-.31.251-.563.562-.563ZM7.688 3.375c0-.31.251-.563.562-.563h8.25a.562.562 0 1 1 0 1.126H8.25a.563.563 0 0 1-.563-.563ZM7.688 7.125c0-.31.251-.563.562-.563h5.25a.562.562 0 1 1 0 1.125H8.25a.563.563 0 0 1-.563-.562ZM7.688 10.875c0-.31.251-.563.562-.563h8.25a.562.562 0 1 1 0 1.126H8.25a.562.562 0 0 1-.563-.563ZM7.688 14.625c0-.31.251-.563.562-.563h5.25a.562.562 0 1 1 0 1.126H8.25a.562.562 0 0 1-.563-.563Z" fill="#2E2E2D"/></svg>