<svg width="24" height="24" viewBox="0 0 24 24" fill="none" xmlns="http://www.w3.org/2000/svg"><path fill-rule="evenodd" clip-rule="evenodd" d="M2.75 12a.75.75 0 0 1 .75-.75h17a.75.75 0 0 1 0 1.5h-17a.75.75 0 0 1-.75-.75Z" fill="#fff"/><path fill-rule="evenodd" clip-rule="evenodd" d="M12 2.75a.75.75 0 0 1 .75.75v17a.75.75 0 0 1-1.5 0v-17a.75.75 0 0 1 .75-.75Z" fill="#fff"/><path d="M4.5 2.5h-2v2h2v-2ZM9 2.5H7v2h2v-2ZM17 2.5h-2v2h2v-2ZM21.5 2.5h-2v2h2v-2ZM21.5 7h-2v2h2V7ZM4.5 7h-2v2h2V7ZM4.5 19.5h-2v2h2v-2ZM9 19.5H7v2h2v-2ZM17 19.5h-2v2h2v-2ZM21.5 19.5h-2v2h2v-2ZM21.5 15h-2v2h2v-2ZM4.5 15h-2v2h2v-2Z" fill="#fff"/></svg>