<svg width="20" height="20" viewBox="0 0 20 20" fill="none" xmlns="http://www.w3.org/2000/svg"><path fill-rule="evenodd" clip-rule="evenodd" d="M9.832 1.045a.612.612 0 0 1 .343 0L17.52 3.19c.26.076.44.316.44.588v4.399c0 4.887-3.127 9.226-7.764 10.771a.613.613 0 0 1-.387 0A11.355 11.355 0 0 1 2.04 8.175V3.778c0-.272.18-.512.44-.588l7.351-2.145ZM3.266 4.237v3.938A10.13 10.13 0 0 0 10 17.72a10.129 10.129 0 0 0 6.734-9.543v-3.94L10.004 2.27 3.266 4.237Z" fill="#585857"/><path fill-rule="evenodd" clip-rule="evenodd" d="M14.514 6.914c.24.24.24.627 0 .866l-4.898 4.898a.612.612 0 0 1-.866 0L5.893 9.82a.612.612 0 1 1 .866-.866l2.424 2.424 4.465-4.465c.24-.24.627-.24.866 0Z" fill="#585857"/></svg>