<svg width="20" height="20" viewBox="0 0 20 20" fill="none" xmlns="http://www.w3.org/2000/svg"><path fill-rule="evenodd" clip-rule="evenodd" d="M14.167 4.167c0-.346.28-.625.625-.625h2.5a.625.625 0 1 1 0 1.25h-2.5a.625.625 0 0 1-.625-.625ZM11.458 1.875c.345 0 .625.28.625.625v3.333a.625.625 0 1 1-1.25 0V2.5c0-.345.28-.625.625-.625Z" fill="#fff"/><path fill-rule="evenodd" clip-rule="evenodd" d="M1.667 4.167c0-.346.28-.625.625-.625h9.167a.625.625 0 0 1 0 1.25H2.292a.625.625 0 0 1-.625-.625ZM1.667 10c0-.345.28-.625.625-.625h3.333a.625.625 0 0 1 0 1.25H2.292A.625.625 0 0 1 1.667 10ZM8.958 7.708c.345 0 .625.28.625.625v3.334a.625.625 0 1 1-1.25 0V8.333c0-.345.28-.625.625-.625Z" fill="#fff"/><path fill-rule="evenodd" clip-rule="evenodd" d="M8.333 10c0-.345.28-.625.625-.625h9.167a.625.625 0 1 1 0 1.25H8.958A.625.625 0 0 1 8.333 10ZM14.167 15.833c0-.345.28-.625.625-.625h2.5a.625.625 0 1 1 0 1.25h-2.5a.625.625 0 0 1-.625-.625ZM11.458 13.542c.345 0 .625.28.625.625V17.5a.625.625 0 0 1-1.25 0v-3.333c0-.346.28-.625.625-.625Z" fill="#fff"/><path fill-rule="evenodd" clip-rule="evenodd" d="M1.667 15.833c0-.345.28-.625.625-.625h9.167a.625.625 0 0 1 0 1.25H2.292a.625.625 0 0 1-.625-.625Z" fill="#fff"/></svg>