<svg width="20" height="20" viewBox="0 0 20 20" fill="none" xmlns="http://www.w3.org/2000/svg"><path fill-rule="evenodd" clip-rule="evenodd" d="M9.84 1.234a.586.586 0 0 1 .328 0l7.027 2.053c.25.073.422.303.422.563v4.21c0 4.678-2.993 8.83-7.43 10.309-.121.04-.25.04-.371 0a10.867 10.867 0 0 1-7.433-10.31v-4.21c0-.26.172-.489.422-.562l7.034-2.053ZM3.554 4.29v3.77A9.696 9.696 0 0 0 10 17.192a9.694 9.694 0 0 0 6.444-9.133V4.29l-6.442-1.883L3.555 4.29Z" fill="#fff"/><path fill-rule="evenodd" clip-rule="evenodd" d="M9.98 5.879c.324 0 .586.262.586.586v6.25a.586.586 0 1 1-1.171 0v-6.25c0-.324.262-.586.585-.586Z" fill="#fff"/><path fill-rule="evenodd" clip-rule="evenodd" d="M6.27 9.59c0-.324.262-.586.585-.586h6.25a.586.586 0 0 1 0 1.172h-6.25a.586.586 0 0 1-.585-.586Z" fill="#fff"/></svg>