<svg width="24" height="24" viewBox="0 0 24 24" fill="none" xmlns="http://www.w3.org/2000/svg"><path d="M19.5 16v.75h.586l.142-.568L19.5 16Zm-13 0-.728.182.142.568H6.5V16ZM22 6l.728.182.233-.932H22V6ZM1.5 3v-.75a.75.75 0 0 0-.576 1.23L1.5 3Zm1.75 0 .728-.182a.75.75 0 0 0-.728-.568V3ZM19.5 15.25h-13v1.5h13v-1.5Zm-12.272.568-2.5-10-1.456.364 2.5 10 1.456-.364ZM4 6.75h18v-1.5H4v1.5Zm17.272-.932-2.5 10 1.456.364 2.5-10-1.456-.364ZM1.5 3.75h1.75v-1.5H1.5v1.5Zm1.022-.568.75 3 1.456-.364-.75-3-1.456.364ZM4.576 5.52l-2.5-3-1.152.96 2.5 3 1.152-.96ZM7.25 19.5a.75.75 0 0 1-.75.75v1.5a2.25 2.25 0 0 0 2.25-2.25h-1.5Zm-.75.75a.75.75 0 0 1-.75-.75h-1.5a2.25 2.25 0 0 0 2.25 2.25v-1.5Zm-.75-.75a.75.75 0 0 1 .75-.75v-1.5a2.25 2.25 0 0 0-2.25 2.25h1.5Zm.75-.75a.75.75 0 0 1 .75.75h1.5a2.25 2.25 0 0 0-2.25-2.25v1.5Zm13.75.75a.75.75 0 0 1-.75.75v1.5a2.25 2.25 0 0 0 2.25-2.25h-1.5Zm-.75.75a.75.75 0 0 1-.75-.75h-1.5a2.25 2.25 0 0 0 2.25 2.25v-1.5Zm-.75-.75a.75.75 0 0 1 .75-.75v-1.5a2.25 2.25 0 0 0-2.25 2.25h1.5Zm.75-.75a.75.75 0 0 1 .75.75h1.5a2.25 2.25 0 0 0-2.25-2.25v1.5Z" fill="#131313"/></svg>