<svg width="20" height="20" viewBox="0 0 20 20" fill="none" xmlns="http://www.w3.org/2000/svg"><path fill-rule="evenodd" clip-rule="evenodd" d="M9.998 1.992c.223 0 .427.126.526.326l2.283 4.599 5.09.742a.586.586 0 0 1 .326.998l-3.703 3.626.88 5.038a.586.586 0 0 1-.853.618l-4.548-2.424-4.546 2.424a.586.586 0 0 1-.853-.619l.886-5.037-3.708-3.625a.586.586 0 0 1 .325-1l5.118-.741L9.473 2.32a.586.586 0 0 1 .525-.328Zm.005 1.911L8.138 7.71a.586.586 0 0 1-.442.322l-4.251.616 3.081 3.013c.139.135.201.33.168.52l-.731 4.158 3.76-2.005a.586.586 0 0 1 .552 0l3.764 2.006-.726-4.16a.586.586 0 0 1 .167-.518l3.077-3.014-4.223-.616a.586.586 0 0 1-.44-.32l-1.891-3.809Z" fill="#fff"/></svg>