<svg width="18" height="18" viewBox="0 0 18 18" fill="none" xmlns="http://www.w3.org/2000/svg"><path fill-rule="evenodd" clip-rule="evenodd" d="M9 2.063c-.932 0-1.688.755-1.688 1.687v6a.563.563 0 0 1-.224.45 3.188 3.188 0 1 0 3.824 0 .562.562 0 0 1-.224-.45v-6c0-.932-.756-1.688-1.688-1.688ZM6.187 3.75a2.813 2.813 0 0 1 5.625 0v5.73a4.313 4.313 0 1 1-5.625 0V3.75Z" fill="#2E2E2D"/><path fill-rule="evenodd" clip-rule="evenodd" d="M9 5.813c.31 0 .563.251.563.562v4.875a.562.562 0 1 1-1.126 0V6.375c0-.31.252-.563.563-.563Z" fill="#2E2E2D"/><path fill-rule="evenodd" clip-rule="evenodd" d="M9 11.813a.937.937 0 1 0 0 1.874.937.937 0 0 0 0-1.874Zm-2.063.937a2.062 2.062 0 1 1 4.125 0 2.062 2.062 0 0 1-4.124 0Z" fill="#2E2E2D"/></svg>