<svg width="20" height="20" viewBox="0 0 20 20" fill="none" xmlns="http://www.w3.org/2000/svg"><path fill-rule="evenodd" clip-rule="evenodd" d="M10 2.87a2.505 2.505 0 1 0 0 5.01 2.505 2.505 0 0 0 0-5.01ZM6.34 5.375a3.661 3.661 0 1 1 7.323 0 3.661 3.661 0 0 1-7.323 0ZM2.484 17.708a7.516 7.516 0 0 1 15.032 0 .578.578 0 1 1-1.157 0 6.36 6.36 0 0 0-12.718 0 .578.578 0 1 1-1.157 0Z" fill="#fff"/><path fill-rule="evenodd" clip-rule="evenodd" d="M10 10.193c.254 0 .478.165.552.408l1.542 5.01a.578.578 0 0 1-.101.531L10.45 18.07a.578.578 0 0 1-.903 0l-1.541-1.928a.578.578 0 0 1-.102-.53L9.447 10.6a.578.578 0 0 1 .553-.408Zm-.9 5.466.9 1.124.899-1.124-.9-2.922-.898 2.922Z" fill="#fff"/></svg>