<svg width="20" height="20" viewBox="0 0 20 20" fill="none" xmlns="http://www.w3.org/2000/svg"><path fill-rule="evenodd" clip-rule="evenodd" d="M1.875 2.5c0-.345.28-.625.625-.625h5.833c.346 0 .625.28.625.625v4.583c0 .346-.28.625-.625.625H2.5a.625.625 0 0 1-.625-.625V2.5Zm1.25.625v3.333h4.583V3.125H3.125ZM11.042 12.917c0-.345.28-.625.625-.625H17.5c.346 0 .625.28.625.625V17.5c0 .345-.28.625-.625.625h-5.833a.625.625 0 0 1-.625-.625v-4.583Zm1.25.625v3.333h4.583v-3.333h-4.583ZM11.042 2.5c0-.345.28-.625.625-.625H17.5c.346 0 .625.28.625.625v7.083c0 .346-.28.625-.625.625h-5.833a.625.625 0 0 1-.625-.625V2.5Zm1.25.625v5.833h4.583V3.125h-4.583ZM1.875 10.417c0-.345.28-.625.625-.625h5.833c.346 0 .625.28.625.625V17.5c0 .345-.28.625-.625.625H2.5a.625.625 0 0 1-.625-.625v-7.083Zm1.25.625v5.833h4.583v-5.833H3.125Z" fill="#585857"/></svg>